<?xml version="1.0" standalone="no"?>
<!DOCTYPE svg PUBLIC "-//W3C//DTD SVG 20010904//EN"
 "http://www.w3.org/TR/2001/REC-SVG-20010904/DTD/svg10.dtd">
<svg version="1.0" xmlns="http://www.w3.org/2000/svg"
 width="400.000000pt" height="400.000000pt" viewBox="0 0 400.000000 400.000000"
 preserveAspectRatio="xMidYMid meet">
<metadata>
Created by potrace 1.14, written by Peter Selinger 2001-2017
</metadata>
<g transform="translate(0.000000,400.000000) scale(0.100000,-0.100000)"
fill="#000000" stroke="none">
<path d="M290 3984 c-125 -34 -225 -131 -269 -262 l-21 -62 2 -1678 c3 -1574
4 -1680 21 -1722 42 -107 145 -204 256 -240 l66 -21 1675 3 c1571 3 1678 4
1720 21 107 42 204 145 240 256 l21 66 -3 1675 c-3 1571 -4 1678 -21 1720 -41
106 -144 203 -254 239 -63 21 -65 21 -1721 20 -1425 0 -1665 -2 -1712 -15z
m3198 -201 c5 -10 12 -88 16 -173 12 -284 40 -594 55 -617 3 -6 59 -22 124
-37 l117 -28 0 -139 0 -139 -619 0 -620 0 -20 29 c-24 34 -27 83 -7 100 8 7
194 55 413 107 256 60 402 99 409 109 20 27 46 302 60 625 4 85 11 161 17 168
14 18 45 15 55 -5z m312 -1528 l0 -185 -908 0 -909 0 -20 23 c-23 24 -163 265
-163 280 0 19 22 49 43 57 12 5 457 9 990 9 l967 1 0 -185z m0 -505 l0 -140
-941 -2 c-918 -3 -941 -3 -955 -22 -11 -16 -14 -84 -14 -371 0 -333 -1 -353
-19 -369 -12 -11 -31 -16 -52 -14 -31 3 -43 21 -331 488 -164 266 -298 492
-298 502 0 11 11 30 25 43 l24 25 1281 0 1280 0 0 -140z m-1227 -962 l-173
-173 -42 43 -43 42 130 130 130 130 -133 133 -132 132 42 43 43 42 175 -175
175 -175 -172 -172z m787 -118 l0 -60 -305 0 -305 0 0 60 0 60 305 0 305 0 0
-60z m-730 -359 c0 -10 7 -22 16 -25 9 -3 200 -6 425 -6 l409 0 12 25 c11 25
12 25 150 25 105 0 138 -3 138 -13 0 -22 -58 -77 -102 -97 -42 -19 -74 -20
-969 -20 -870 0 -927 1 -941 18 -33 38 -26 85 14 102 13 5 209 9 436 9 398 1
412 0 412 -18z"/>
</g>
</svg>
