<?xml version="1.0" standalone="no"?>
<!DOCTYPE svg PUBLIC "-//W3C//DTD SVG 20010904//EN"
 "http://www.w3.org/TR/2001/REC-SVG-20010904/DTD/svg10.dtd">
<svg version="1.0" xmlns="http://www.w3.org/2000/svg"
 width="400.000000pt" height="400.000000pt" viewBox="0 0 400.000000 400.000000"
 preserveAspectRatio="xMidYMid meet">
<metadata>
Created by potrace 1.14, written by Peter Selinger 2001-2017
</metadata>
<g transform="translate(0.000000,400.000000) scale(0.100000,-0.100000)"
fill="#000000" stroke="none">
<path d="M330 3989 c-156 -26 -289 -161 -319 -324 -15 -80 -15 -3232 0 -3325
13 -86 42 -143 103 -209 59 -62 137 -105 221 -120 80 -15 3232 -15 3325 0 86
13 143 42 209 103 62 59 105 137 120 221 15 80 15 3232 0 3325 -13 86 -42 143
-103 209 -59 62 -137 105 -221 120 -74 14 -3252 13 -3335 0z m1339 -1337 c173
-62 249 -175 239 -356 -3 -56 -11 -94 -25 -121 -25 -49 -95 -115 -140 -134
-44 -18 -42 -44 4 -60 57 -21 135 -106 156 -170 32 -100 16 -236 -38 -320 -43
-68 -111 -116 -205 -147 -48 -16 -105 -18 -452 -22 l-398 -3 0 120 0 121 85 0
85 0 0 440 0 440 -85 0 -85 0 0 121 0 121 398 -4 c383 -4 399 -4 461 -26z
m1160 4 c181 -47 297 -165 346 -351 22 -84 22 -524 0 -610 -49 -192 -175 -312
-370 -356 -44 -10 -151 -14 -390 -14 l-330 0 0 115 0 115 88 3 87 3 0 439 0
439 -87 3 -88 3 -3 118 -3 119 343 -5 c275 -3 356 -8 407 -21z"/>
<path d="M1240 2280 l0 -162 148 4 c165 3 196 14 239 78 30 43 31 121 3 167
-34 57 -67 67 -237 71 l-153 4 0 -162z"/>
<path d="M1240 1719 l0 -161 153 4 c167 3 197 12 241 71 30 40 30 144 0 184
-40 54 -73 63 -241 63 l-153 0 0 -161z"/>
<path d="M2520 2000 l0 -443 110 5 c138 7 206 35 250 104 47 75 52 110 48 359
-3 228 -3 230 -30 282 -50 94 -108 122 -270 130 l-108 6 0 -443z"/>
</g>
</svg>
