<svg width="1057" height="200" viewBox="0 0 1057 200" fill="none" xmlns="http://www.w3.org/2000/svg">
<path d="M240 152.64V63.04H279.68C285.909 63.04 291.115 63.936 295.296 65.728C299.563 67.4346 302.805 69.952 305.024 73.28C307.243 76.5226 308.352 80.4906 308.352 85.184C308.352 90.2186 307.072 94.4426 304.512 97.856C302.037 101.269 298.453 103.659 293.76 105.024L293.632 102.336C297.472 103.275 300.843 104.853 303.744 107.072C306.731 109.205 309.035 111.851 310.656 115.008C312.277 118.08 313.088 121.579 313.088 125.504C313.088 130.027 312.277 133.995 310.656 137.408C309.12 140.821 306.901 143.68 304 145.984C301.184 148.203 297.813 149.867 293.888 150.976C290.048 152.085 285.781 152.64 281.088 152.64H240ZM260.736 134.336H280.192C283.776 134.336 286.549 133.483 288.512 131.776C290.56 130.069 291.584 127.637 291.584 124.48C291.584 122.517 291.072 120.853 290.048 119.488C289.109 118.123 287.744 117.099 285.952 116.416C284.16 115.733 282.027 115.392 279.552 115.392H260.736V134.336ZM260.736 98.88H276.736C278.955 98.88 280.832 98.5386 282.368 97.856C283.904 97.088 285.056 96.064 285.824 94.784C286.677 93.4186 287.104 91.84 287.104 90.048C287.104 87.3173 286.165 85.184 284.288 83.648C282.411 82.112 279.595 81.344 275.84 81.344H260.736V98.88Z" fill="black"/>
<path d="M363.801 152.64V110.912C363.801 107.413 362.82 104.853 360.857 103.232C358.98 101.525 356.334 100.672 352.921 100.672C349.593 100.672 346.606 101.312 343.961 102.592C341.401 103.787 338.926 105.792 336.537 108.608L324.249 96.704C328.345 92.5226 333.038 89.2373 338.329 86.848C343.62 84.4586 349.38 83.264 355.609 83.264C361.326 83.264 366.276 84.1173 370.457 85.824C374.638 87.5306 377.881 90.1333 380.185 93.632C382.489 97.1306 383.641 101.568 383.641 106.944V152.64H363.801ZM346.137 153.92C341.87 153.92 337.988 153.067 334.489 151.36C331.076 149.653 328.345 147.307 326.297 144.32C324.334 141.248 323.353 137.664 323.353 133.568C323.353 130.069 323.993 126.997 325.273 124.352C326.553 121.707 328.43 119.531 330.905 117.824C333.465 116.032 336.622 114.709 340.377 113.856C344.217 112.917 348.654 112.448 353.689 112.448H374.297L373.145 125.376H354.201C352.409 125.376 350.83 125.547 349.465 125.888C348.1 126.144 346.948 126.613 346.009 127.296C345.07 127.893 344.345 128.619 343.833 129.472C343.406 130.325 343.193 131.349 343.193 132.544C343.193 133.824 343.534 134.933 344.217 135.872C344.9 136.811 345.796 137.536 346.905 138.048C348.1 138.56 349.465 138.816 351.001 138.816C353.22 138.816 355.31 138.475 357.273 137.792C359.321 137.024 361.113 135.957 362.649 134.592C364.27 133.227 365.55 131.648 366.489 129.856L370.073 139.072C368.281 141.973 366.105 144.533 363.545 146.752C361.07 148.971 358.34 150.72 355.353 152C352.452 153.28 349.38 153.92 346.137 153.92Z" fill="black"/>
<path d="M400.077 152.64V84.672H419.661L420.429 98.496L416.205 100.032C417.144 96.96 418.808 94.1866 421.197 91.712C423.672 89.152 426.616 87.104 430.029 85.568C433.442 84.032 437.026 83.264 440.781 83.264C445.901 83.264 450.21 84.3306 453.709 86.464C457.208 88.512 459.81 91.6266 461.517 95.808C463.309 99.904 464.205 104.981 464.205 111.04V152.64H443.597V112.576C443.597 109.845 443.213 107.584 442.445 105.792C441.677 104 440.525 102.677 438.989 101.824C437.453 100.971 435.533 100.587 433.229 100.672C431.437 100.672 429.773 100.971 428.237 101.568C426.701 102.08 425.336 102.891 424.141 104C423.032 105.024 422.178 106.219 421.581 107.584C420.984 108.949 420.685 110.485 420.685 112.192V152.64H410.317C408.098 152.64 406.093 152.64 404.301 152.64C402.594 152.64 401.186 152.64 400.077 152.64Z" fill="black"/>
<path d="M507.308 153.92C501.505 153.92 496.257 152.427 491.564 149.44C486.956 146.453 483.329 142.315 480.684 137.024C478.039 131.648 476.716 125.547 476.716 118.72C476.716 111.893 478.039 105.835 480.684 100.544C483.329 95.168 486.956 90.944 491.564 87.872C496.257 84.8 501.548 83.264 507.436 83.264C510.508 83.264 513.452 83.7333 516.268 84.672C519.169 85.6106 521.729 86.8906 523.948 88.512C526.252 90.1333 528.129 91.968 529.58 94.016C531.031 96.064 531.927 98.24 532.268 100.544L527.276 101.696V57.92H547.884V152.64H528.684L527.532 137.28L531.628 138.048C531.457 140.096 530.689 142.101 529.324 144.064C527.959 145.941 526.124 147.648 523.82 149.184C521.601 150.635 519.084 151.787 516.268 152.64C513.452 153.493 510.465 153.92 507.308 153.92ZM512.428 136.896C515.585 136.896 518.273 136.171 520.492 134.72C522.796 133.184 524.588 131.051 525.868 128.32C527.148 125.589 527.788 122.389 527.788 118.72C527.788 114.965 527.148 111.723 525.868 108.992C524.588 106.261 522.796 104.171 520.492 102.72C518.273 101.184 515.585 100.416 512.428 100.416C509.356 100.416 506.668 101.184 504.364 102.72C502.145 104.171 500.396 106.261 499.116 108.992C497.836 111.723 497.196 114.965 497.196 118.72C497.196 122.389 497.836 125.589 499.116 128.32C500.396 131.051 502.145 133.184 504.364 134.72C506.668 136.171 509.356 136.896 512.428 136.896Z" fill="black"/>
<path d="M590.37 153.92C585.421 153.92 581.154 152.853 577.57 150.72C573.986 148.501 571.213 145.387 569.25 141.376C567.373 137.28 566.434 132.373 566.434 126.656V84.672H587.042V123.584C587.042 127.765 588.023 131.051 589.986 133.44C592.034 135.744 594.85 136.896 598.434 136.896C600.226 136.896 601.847 136.64 603.298 136.128C604.749 135.531 605.986 134.72 607.01 133.696C608.119 132.587 608.973 131.307 609.57 129.856C610.167 128.405 610.466 126.827 610.466 125.12V84.672H631.074V152.64H611.746L610.978 138.688L614.69 137.152C613.751 140.309 612.045 143.168 609.57 145.728C607.181 148.288 604.322 150.293 600.994 151.744C597.666 153.195 594.125 153.92 590.37 153.92Z" fill="black"/>
<path d="M649.452 152.64V84.672H669.036L669.804 98.496L665.58 100.032C666.519 96.96 668.183 94.1866 670.572 91.712C673.047 89.152 675.991 87.104 679.404 85.568C682.817 84.032 686.401 83.264 690.156 83.264C695.276 83.264 699.585 84.3306 703.084 86.464C706.583 88.512 709.185 91.6266 710.892 95.808C712.684 99.904 713.58 104.981 713.58 111.04V152.64H692.972V112.576C692.972 109.845 692.588 107.584 691.82 105.792C691.052 104 689.9 102.677 688.364 101.824C686.828 100.971 684.908 100.587 682.604 100.672C680.812 100.672 679.148 100.971 677.612 101.568C676.076 102.08 674.711 102.891 673.516 104C672.407 105.024 671.553 106.219 670.956 107.584C670.359 108.949 670.06 110.485 670.06 112.192V152.64H659.692C657.473 152.64 655.468 152.64 653.676 152.64C651.969 152.64 650.561 152.64 649.452 152.64Z" fill="black"/>
<path d="M761.931 182.08C756.47 182.08 750.966 181.269 745.419 179.648C739.958 178.112 735.52 176.064 732.107 173.504L739.275 158.912C742.006 160.789 745.078 162.24 748.491 163.264C751.99 164.373 755.616 164.928 759.371 164.928C763.723 164.928 767.264 164.288 769.995 163.008C772.726 161.728 774.731 159.808 776.011 157.248C777.376 154.688 778.059 151.488 778.059 147.648V136.384L781.899 137.152C781.387 139.797 779.936 142.272 777.547 144.576C775.243 146.88 772.384 148.715 768.971 150.08C765.558 151.445 761.974 152.128 758.219 152.128C752.075 152.128 746.571 150.72 741.707 147.904C736.843 145.003 733.003 141.035 730.187 136C727.456 130.88 726.091 124.992 726.091 118.336C726.091 111.509 727.456 105.451 730.187 100.16C733.003 94.8693 736.8 90.7306 741.579 87.744C746.358 84.7573 751.734 83.264 757.707 83.264C760.182 83.264 762.571 83.5626 764.875 84.16C767.264 84.672 769.44 85.44 771.403 86.464C773.451 87.488 775.243 88.64 776.779 89.92C778.4 91.2 779.723 92.608 780.747 94.144C781.771 95.68 782.411 97.216 782.667 98.752L778.443 100.032L779.211 84.672H798.795V147.008C798.795 152.555 797.942 157.504 796.235 161.856C794.614 166.208 792.182 169.877 788.939 172.864C785.782 175.851 781.942 178.112 777.419 179.648C772.896 181.269 767.734 182.08 761.931 182.08ZM762.443 136.128C765.771 136.128 768.63 135.403 771.019 133.952C773.494 132.501 775.371 130.453 776.651 127.808C778.016 125.163 778.699 122.091 778.699 118.592C778.699 114.923 778.016 111.765 776.651 109.12C775.371 106.475 773.494 104.427 771.019 102.976C768.63 101.44 765.771 100.672 762.443 100.672C759.286 100.672 756.512 101.44 754.123 102.976C751.734 104.427 749.856 106.475 748.491 109.12C747.211 111.765 746.571 114.88 746.571 118.464C746.571 122.048 747.211 125.163 748.491 127.808C749.856 130.453 751.734 132.501 754.123 133.952C756.512 135.403 759.286 136.128 762.443 136.128Z" fill="black"/>
<path d="M818.625 152.64V63.04H856.385C862.956 63.04 868.972 64.1493 874.433 66.368C879.894 68.5013 884.588 71.5733 888.513 75.584C892.438 79.5093 895.468 84.2453 897.601 89.792C899.734 95.2533 900.801 101.269 900.801 107.84C900.801 114.496 899.734 120.555 897.601 126.016C895.468 131.477 892.438 136.213 888.513 140.224C884.588 144.149 879.894 147.221 874.433 149.44C869.057 151.573 863.041 152.64 856.385 152.64H818.625ZM840.513 137.536L837.697 133.312H855.745C859.244 133.312 862.401 132.715 865.217 131.52C868.033 130.325 870.422 128.619 872.385 126.4C874.433 124.096 875.969 121.408 876.993 118.336C878.102 115.179 878.657 111.68 878.657 107.84C878.657 104 878.102 100.544 876.993 97.472C875.969 94.3146 874.433 91.6266 872.385 89.408C870.422 87.104 868.033 85.3546 865.217 84.16C862.401 82.9653 859.244 82.368 855.745 82.368H837.313L840.513 78.4V137.536Z" fill="black"/>
<path d="M947.836 153.92C940.327 153.92 933.756 152.427 928.124 149.44C922.577 146.453 918.268 142.357 915.196 137.152C912.209 131.861 910.716 125.845 910.716 119.104C910.716 113.813 911.569 108.992 913.276 104.64C914.983 100.203 917.372 96.4053 920.444 93.248C923.601 90.0906 927.271 87.6586 931.452 85.952C935.719 84.16 940.369 83.264 945.404 83.264C950.183 83.264 954.535 84.1173 958.46 85.824C962.385 87.5306 965.799 89.92 968.7 92.992C971.601 96.064 973.82 99.6906 975.356 103.872C976.892 108.053 977.617 112.619 977.532 117.568L977.404 123.2H923.388L920.316 111.552H960.636L958.46 113.856V111.296C958.289 109.163 957.607 107.328 956.412 105.792C955.303 104.171 953.809 102.891 951.932 101.952C950.14 101.013 948.092 100.544 945.788 100.544C942.375 100.544 939.473 101.227 937.084 102.592C934.78 103.872 933.031 105.749 931.836 108.224C930.641 110.699 930.044 113.771 930.044 117.44C930.044 121.109 930.812 124.352 932.348 127.168C933.969 129.984 936.273 132.16 939.26 133.696C942.332 135.232 945.959 136 950.14 136C952.956 136 955.516 135.573 957.82 134.72C960.124 133.867 962.599 132.416 965.244 130.368L974.844 143.936C972.199 146.155 969.383 148.032 966.396 149.568C963.409 151.019 960.337 152.085 957.18 152.768C954.108 153.536 950.993 153.92 947.836 153.92Z" fill="black"/>
<path d="M1010.32 152.64L981.903 84.672H1004.56L1021.46 134.976L1016.46 135.616L1033.87 84.672H1056.4L1026.45 152.64H1010.32Z" fill="black"/>
<rect width="200" height="200" rx="20" fill="black"/>
<path d="M137.339 169.424V163.249H168.216V169.424H137.339Z" fill="white"/>
<path d="M115.444 138.796L119.811 134.43L137.278 151.897L119.811 169.364L115.444 164.997L128.544 151.897L115.444 138.796Z" fill="white"/>
<path d="M178.378 50.8888L190 53.4867V67.7799H129.765C128.666 67.7799 127.705 67.2306 127.018 66.2693L126.194 64.7587C125.096 62.9735 126.057 60.639 128.117 60.227L167.529 50.8888C169.452 50.4768 170.962 16.1453 171.1 11.7509C171.168 10.5836 172.061 10 172.954 10C173.846 10 174.739 10.5836 174.808 11.7509C174.846 12.3899 174.907 13.6187 174.988 15.2595C175.48 25.2544 176.727 50.5349 178.378 50.8888Z" fill="white"/>
<path d="M93.2359 78.2167H190V96.6183H100.377C99.2782 96.6183 98.317 96.069 97.6303 95.1078L90.4894 82.8858C89.2535 80.8259 90.764 78.2167 93.2359 78.2167Z" fill="white"/>
<path d="M62.6122 105.682H190V119.689H97.6303C95.8451 119.689 94.4718 121.062 94.4718 122.848V155.669C94.4718 158.827 90.3521 159.926 88.7042 157.316L59.8657 110.488C58.7671 108.428 60.2777 105.682 62.6122 105.682Z" fill="white"/>
<path d="M174.67 183.683H189.3C187.833 187.383 184.222 190 180 190H90.3521C88.5668 190 87.1936 188.627 87.1936 186.842C87.1936 185.056 88.5668 183.683 90.3521 183.683H131.55C131.413 183.958 131.413 184.095 131.413 184.37C131.413 185.056 132.099 185.743 132.786 185.743H173.434C174.121 185.743 174.808 185.056 174.808 184.37C174.808 184.095 174.808 183.958 174.67 183.683Z" fill="white"/>
</svg>
