<svg width="200" height="200" viewBox="0 0 200 200" fill="none" xmlns="http://www.w3.org/2000/svg">
<rect width="200" height="200" rx="20" fill="#1E293B"/>
<path d="M137.339 169.424V163.249H168.216V169.424H137.339Z" fill="#CBD5E1"/>
<path d="M115.444 138.796L119.811 134.43L137.278 151.897L119.811 169.364L115.444 164.997L128.544 151.897L115.444 138.796Z" fill="#CBD5E1"/>
<path d="M178.378 50.8888L190 53.4867V67.7799H129.765C128.666 67.7799 127.705 67.2306 127.018 66.2693L126.194 64.7587C125.096 62.9735 126.057 60.639 128.117 60.227L167.529 50.8888C169.452 50.4768 170.962 16.1453 171.1 11.7509C171.168 10.5836 172.061 10 172.954 10C173.846 10 174.739 10.5836 174.808 11.7509C174.846 12.3899 174.907 13.6187 174.988 15.2595C175.48 25.2544 176.727 50.5349 178.378 50.8888Z" fill="#CBD5E1"/>
<path d="M93.2359 78.2167H190V96.6183H100.377C99.2782 96.6183 98.317 96.069 97.6303 95.1078L90.4894 82.8858C89.2535 80.8259 90.764 78.2167 93.2359 78.2167Z" fill="#CBD5E1"/>
<path d="M62.6122 105.682H190V119.689H97.6303C95.8451 119.689 94.4718 121.062 94.4718 122.848V155.669C94.4718 158.827 90.3521 159.926 88.7042 157.316L59.8657 110.488C58.7671 108.428 60.2777 105.682 62.6122 105.682Z" fill="#CBD5E1"/>
<path d="M174.67 183.683H189.3C187.833 187.383 184.222 190 180 190H90.3521C88.5668 190 87.1936 188.627 87.1936 186.842C87.1936 185.056 88.5668 183.683 90.3521 183.683H131.55C131.413 183.958 131.413 184.095 131.413 184.37C131.413 185.056 132.099 185.743 132.786 185.743H173.434C174.121 185.743 174.808 185.056 174.808 184.37C174.808 184.095 174.808 183.958 174.67 183.683Z" fill="#CBD5E1"/>
</svg>
